<?xml version="1.0" encoding="utf-8"?>
<!-- Generator: Adobe Illustrator 18.1.1, SVG Export Plug-In . SVG Version: 6.00 Build 0)  -->
<svg version="1.1" id="Layer_1" xmlns="http://www.w3.org/2000/svg" xmlns:xlink="http://www.w3.org/1999/xlink" x="0px" y="0px"
	 viewBox="0 0 159.6 206.4" enable-background="new 0 0 159.6 206.4" xml:space="preserve">
<g>
	<g>
		<path d="M89.4,169.4c-1.8,0-7.6,0.6-7.6-2.4c0-5.6,15.4-25.6,15.4-48.4c0-9-8.6-12.4-17.6-12.4c-18.2,0-47.2,3.2-47.2,26
			c0,15.8,13,32.8,13,35.8c0,1.2-1.2,1.4-3.8,1.4H13c-10.2,0-13-18-13-44C0,39.8,59.4,0,68.2,0c6.6,0,58.2,28.6,58.2,121.4
			c0,53.4-8.6,48-14.6,48H89.4z M36.8,80.6c0,2.4,1.4,3.8,3.8,3.8c3.6,0,23-5.2,40.6-5.2c7,0,10.2-1,10.2-6.6
			c0-12.4-14.8-38.4-22.4-38.4C58.2,34.2,36.8,66,36.8,80.6z"/>
	</g>
	<g>
		<path d="M152.8,75.4c2.8,0,6.8,0,6.8,78.8c0,23.8-4.2,52.2-33.4,52.2c-5.4,0-17.8-1.8-17.8-9.2c0-6.2,2-25.4,7.4-25.4
			c3.2,0,4.4,5,8.2,5c4,0,8.6-1.6,8.6-33.4c0-20-4.2-55.2-4.2-64.2c0-4.6,5.4-3.8,8.6-3.8H152.8z M126.2,46.6
			c0-8.6,7.4-13.8,15.4-13.8S157,38,157,46.6c0,8.6-7.4,13.2-15.4,13.2S126.2,55.2,126.2,46.6z"/>
	</g>
</g>
</svg>
